<?xml version="1.0" encoding="UTF-8" standalone="no"?>
<?xml-stylesheet type="text/css" href="nav-style.css"?>
<!-- Created with Inkscape (http://www.inkscape.org/) -->
<svg xmlns:dc="http://purl.org/dc/elements/1.1/" xmlns:cc="http://creativecommons.org/ns#" xmlns:rdf="http://www.w3.org/1999/02/22-rdf-syntax-ns#" xmlns:svg="http://www.w3.org/2000/svg" xmlns="http://www.w3.org/2000/svg" xmlns:sodipodi="http://sodipodi.sourceforge.net/DTD/sodipodi-0.dtd" xmlns:inkscape="http://www.inkscape.org/namespaces/inkscape" version="1.1" id="svg2" width="584.00006" height="564.95074" viewBox="0 0 584.00006 564.95074">
        <metadata id="metadata8">

        </metadata>
        <defs id="defs6"/>

        <filter id="dropShadow" height="130%">
          <feGaussianBlur in="SourceAlpha" stdDeviation="3" id="feGaussianBlur7"/>

          <feOffset dx="10" dy="10" result="offsetblur" id="feOffset9"/>

          <feComponentTransfer id="feComponentTransfer13">
            <feFuncA type="linear" slope="0.5" id="feFuncA11"/>

          </feComponentTransfer>
          <feMerge id="feMerge19">
            <feMergeNode id="feMergeNode15"/>

            <feMergeNode id="feMergeNode17"/>

          </feMerge>
        </filter>
        <path style="fill:#ffffff" d="m 583.3135,19.526961 -362,-18.99999985 0.1864,172.92379885 -68.1864,1.0762 v 70.9238 H 0.5 v 319 h 411.9999 c 37.4362,-82.2087 99.0376,-120.9277 171,-141 z" id="path93" class="building"/>
        <path d="m 221.4307,1.4331611 0.0692,172.0175989 -68.1864,1.0762 v 70.9238 l -149.8828,-0.018 c 129.2856,-32.9907 214.7446,-147.549299 218,-243.9999989 z" id="path3853" class="void"/>
        <g id="str7a" class="room">
          <path class="stair" id="path4829" d="m 153.3135,538.45076 v 26 H 0.5 v -26 z"/>
          <path d="m 82,541.95074 v 4.8 h -4.8001 v 4.7999 H 72.4 v 4.8001 h -4.8 v 3.6 h 8.3999 v -4.8 H 80.8 v -4.7999 h 4.8 v -4.8001 h 4.8 v -3.6 z" id="stairs-6" class="icon"/>
        </g>
        <g id="lft7a" class="room">
          <path class="stair" id="path4827" d="m 363.4999,391.45076 h -141 v -110 l 37,-37 h 104 z"/>
          <path d="m 277.3333,288.61739 13.3334,13.3334 h -10 v 13.3333 H 274 v -13.3333 h -10 l 13.3333,-13.3334 m 33.3334,26.6667 -13.3334,-13.3333 h 10 v -13.3334 H 314 v 13.3334 h 10 l -13.3333,13.3333 m -33.3334,6.6667 h 33.3334 a 6.6666667,6.6666667 0 0 1 6.6666,6.6666 v 20 a 6.6666667,6.6666667 0 0 1 -6.6666,6.6667 h -33.3334 a 6.6666667,6.6666667 0 0 1 -6.6666,-6.6667 v -20 a 6.6666667,6.6666667 0 0 1 6.6666,-6.6666 m 0,6.6666 v 20 h 33.3334 v -20 z" id="lift-0" class="icon"/>
        </g>
        <path d="m 363.4999,304.52696 h 79.8136 v -60.0939 l -79.8136,0.0177 z" id="path4831" class="void"/>
        <path d="m 443.3135,244.43306 h 29.9914 v 60.0641 l -9.9914,0.03 h -20 z" id="path41" class="void"/>
        <g id="tlt7a" class="room">
          <path class="toilet" id="path4825" d="m 363.4999,468.45076 v -77 h -141 v 77 z"/>
          <path d="m 267.2941,464.24484 v -26.4706 H 262 v -19.4117 c 0,-3.8824 3.1765,-7.0588 7.0588,-7.0588 h 10.5883 c 3.8824,0 7.0588,3.1764 7.0588,7.0588 v 19.4117 h -5.2941 v 26.4706 z m 44.1176,0 v -21.1765 H 322 l -8.9647,-26.9294 c -0.9882,-2.8941 -3.6706,-4.8352 -6.7059,-4.8352 h -0.4236 c -3.0353,0 -5.7528,1.9411 -6.7058,4.8352 l -8.9647,26.9294 h 10.5882 v 21.1765 z m -37.0587,-56.4706 c 3.9175,0 7.0588,-3.1411 7.0588,-7.0588 0,-3.9176 -3.1413,-7.0588 -7.0588,-7.0588 -3.9177,0 -7.0589,3.1412 -7.0589,7.0588 0,3.9177 3.1412,7.0588 7.0589,7.0588 z m 31.7647,0 c 3.9177,0 7.0587,-3.1411 7.0587,-7.0588 0,-3.9176 -3.141,-7.0588 -7.0587,-7.0588 -3.9177,0 -7.0589,3.1412 -7.0589,7.0588 0,3.9177 3.1412,7.0588 7.0589,7.0588 z" id="wc-7" class="icon"/>
        </g>
        <path d="m 462.4999,391.45076 h 49 v -146 h 72 v 178 c -84.3994,22.2916 -139.3819,71.111 -171,141 h -49 v -173 z" id="path44" class="void"/>
        <ellipse style="fill:none" id="path136" cx="183.99989" cy="478.45078" rx="7.5" ry="15"/>
        
      </svg>
      