<?xml version="1.0" encoding="UTF-8" standalone="no"?>
<?xml-stylesheet type="text/css" href="nav-style.css"?>
<!-- Created with Inkscape (http://www.inkscape.org/) -->
<svg  xmlns:dc="http://purl.org/dc/elements/1.1/" xmlns:cc="http://creativecommons.org/ns#" xmlns:rdf="http://www.w3.org/1999/02/22-rdf-syntax-ns#" xmlns:svg="http://www.w3.org/2000/svg" xmlns="http://www.w3.org/2000/svg" xmlns:sodipodi="http://sodipodi.sourceforge.net/DTD/sodipodi-0.dtd" xmlns:inkscape="http://www.inkscape.org/namespaces/inkscape" version="1.1" id="svg2" width="1966" height="635" viewBox="0 0 1966 635">
        <metadata id="metadata8">

        </metadata>
        <defs id="defs6"/>

        <filter id="dropShadow" height="130%">
          <feGaussianBlur in="SourceAlpha" stdDeviation="3" id="feGaussianBlur6"/>

          <feOffset dx="10" dy="10" result="offsetblur" id="feOffset8"/>

          <feComponentTransfer id="feComponentTransfer12">
            <feFuncA type="linear" slope="0.5" id="feFuncA10"/>

          </feComponentTransfer>
          <feMerge id="feMerge18">
            <feMergeNode id="feMergeNode14"/>

            <feMergeNode id="feMergeNode16"/>

          </feMerge>
        </filter>
        <path d="m 1964.9999,77 h -706 V 0 H 0 c 70.2368,252.3892 221.2525,377.0216 422,423 l 1542.9999,212 z" id="path80" class="building" style="fill:#ffffff"/>
        <g id="str5-left" class="room">
          <path class="stair" id="path4811" d="m 71.9999,2e-5 h -72 c 19.4205,69.1971 45.7633,133.4802 83,192 l 58.40882,-39.22097 C 110.06072,109.10375 86.9071,57.34202 71.9999,2e-5 Z"/>
          <path class="icon" id="stairs-46" d="M 72.52632,67.94738 V 78.47369 H 61.9999 V 89 H 51.47366 V 99.52631 H 40.94732 v 7.89473 h 18.421 V 96.89473 H 69.89466 V 86.36843 H 80.4209 V 75.84211 h 10.52642 v -7.89473 z"/>
        </g>
        <g id="str5-top" class="room">
          <path class="stair" id="path4809" d="m 1258.9999,77 -162,2e-5 v -77 l 162,-2e-5 z"/>
          <path class="icon" id="stairs-1" d="m 1180.1579,16.89475 v 12.63157 h -12.6317 v 12.63157 h -12.6315 v 12.63157 h -12.6316 v 9.47368 h 22.1052 V 51.63157 h 12.6316 V 39 h 12.6315 V 26.36842 h 12.6317 v -9.47367 z"/>
        </g>
        <g id="tlt5" class="room">
          <path class="toilet" id="path139" d="m 849.2426,359.00002 197.7573,1.66382 V 442 H 1120 v 76.8437 L 846.9999,481.70711 Z"/>
          <path d="M 929.5934,457.21957 V 430.749 h -5.2941 v -19.41176 c 0,-3.88235 3.1765,-7.05882 7.0588,-7.05882 h 10.5883 c 3.8824,0 7.0588,3.17647 7.0588,7.05882 V 430.749 h -5.2941 v 26.47057 z m 44.1176,0 v -21.17646 h 10.5883 l -8.9647,-26.9294 c -0.9882,-2.89412 -3.6706,-4.83529 -6.7059,-4.83529 h -0.4236 c -3.0353,0 -5.7528,1.94117 -6.7058,4.83529 l -8.9647,26.9294 h 10.5882 v 21.17646 z M 936.6523,400.749 c 3.9175,0 7.0588,-3.14116 7.0588,-7.05882 0,-3.91764 -3.1413,-7.05882 -7.0588,-7.05882 -3.9177,0 -7.0589,3.14118 -7.0589,7.05882 0,3.91766 3.1412,7.05882 7.0589,7.05882 z m 31.7647,0 c 3.9177,0 7.0587,-3.14116 7.0587,-7.05882 0,-3.91764 -3.141,-7.05882 -7.0587,-7.05882 -3.9177,0 -7.0589,3.14118 -7.0589,7.05882 0,3.91766 3.1412,7.05882 7.0589,7.05882 z" id="wc" class="icon"/>
        </g>
        <g id="str5-bottom" class="room">
          <path class="stair" id="path141" d="m 1120,442 v 76.84376 l 124.75,16.5476 L 1244.625,442 Z"/>
          <path d="m 1189.0087,456.35654 v 12.63157 h -12.6317 v 12.63157 h -12.6315 v 12.63157 h -12.6316 v 9.47368 h 22.1052 v -12.63157 h 12.6316 v -12.63157 h 12.6315 v -12.63158 h 12.6317 v -9.47367 z" id="stairs" class="icon"/>
        </g>
        <g id="lft5" class="room">
          <path class="stair" id="path4805" d="M 1244.625,441.99994 V 536.0163 L 1384,554.99989 v -113 z"/>
          <path d="m 1298.6665,462.33333 13.3334,13.33334 h -10 V 489 h -6.6667 v -13.33333 h -10 l 13.3333,-13.33334 M 1331.9999,489 1318.6665,475.66667 h 10 v -13.33334 h 6.6667 v 13.33334 h 10 L 1331.9999,489 m -33.3334,6.66667 h 33.3334 a 6.6666667,6.6666667 0 0 1 6.6666,6.66666 v 20 A 6.6666667,6.6666667 0 0 1 1331.9999,529 h -33.3334 a 6.6666667,6.6666667 0 0 1 -6.6666,-6.66667 v -20 a 6.6666667,6.6666667 0 0 1 6.6666,-6.66666 m 0,6.66666 v 20 h 33.3334 v -20 z" id="lift" class="icon"/>
        </g>
        <path d="m 1383.9999,442 10e-5,113.20439 60.9999,8.2653 V 442.00522 Z" id="path3839" class="void" style="stroke-width:0.98785418"/>
        <g id="str5-right" class="room">
          <path class="stair" id="path3847" d="m 1964.9999,439.00002 -142.9308,-1e-5 v -65 l 142.9826,1.0762 z"/>
          <path class="icon" id="stairs-4" d="m 1905.1579,381.89475 v 12.63157 h -12.6317 v 12.63157 h -12.6315 v 12.63157 h -12.6316 v 9.47368 h 22.1052 v -12.63157 h 12.6316 V 404 h 12.6315 v -12.63158 h 12.6317 v -9.47367 z"/>
        </g>
        
      </svg>