<?xml version="1.0" encoding="UTF-8" standalone="no"?>
<?xml-stylesheet type="text/css" href="nav-style.css"?>
<!-- Created with Inkscape (http://www.inkscape.org/) -->

<svg   xmlns:dc="http://purl.org/dc/elements/1.1/" xmlns:cc="http://creativecommons.org/ns#" xmlns:rdf="http://www.w3.org/1999/02/22-rdf-syntax-ns#" xmlns:svg="http://www.w3.org/2000/svg" xmlns="http://www.w3.org/2000/svg" xmlns:xlink="http://www.w3.org/1999/xlink" xmlns:sodipodi="http://sodipodi.sourceforge.net/DTD/sodipodi-0.dtd" xmlns:inkscape="http://www.inkscape.org/namespaces/inkscape" version="1.1" id="svg2" width="2336" height="1651" viewBox="0 0 2336 1651">
        <metadata id="metadata8">

        </metadata>
        <defs id="defs6">
          <symbol id="Coffeeshop">
            <title id="title1080">Coffeeshop</title>
            <g style="stroke:none;fill-rule:evenodd" id="g1086">
              <path d="m 20,45 a 5,5 0 0 0 5,5 l 22,0 a 5,5 0 0 0 5,-5 l 0,-1 1,0 a 10,10 0 0 0 0,-20 l -33,0 z M 52,28 l 0,12 1,0 a 6,6 0 0 0 0,-12 z" id="path1082"/>
              <path d="m 8,52 a 6,6 0 0 0 6,6 l 44,0 a 6,6 0 0 0 6,-6 z" id="path1084"/>
            </g>
          </symbol>
          <symbol id="FirstAid">
            <title id="title364">First Aid</title>
            <path d="m 44,13 0,15 15,0 0,16 -15,0 0,15 -16,0 0,-15 -15,0 0,-16 15,0 0,-15 z" style="stroke:none" id="path366"/>
          </symbol>
          <symbol id="FirstAid_Inv">
            <title id="title374">First Aid</title>
            <rect x="0.5" y="0.5" width="71" height="71" ry="6" style="stroke:white" id="rect376"/>
            <path d="m 44,13 0,15 15,0 0,16 -15,0 0,15 -16,0 0,-15 -15,0 0,-16 15,0 0,-15 z" style="fill:white;stroke:none" id="path378"/>
          </symbol>
        </defs>

        <filter id="dropShadow" height="130%">
          <feGaussianBlur in="SourceAlpha" stdDeviation="3" id="feGaussianBlur6"/>

          <feOffset dx="10" dy="10" result="offsetblur" id="feOffset8"/>

          <feComponentTransfer id="feComponentTransfer12">
            <feFuncA type="linear" slope="0.5" id="feFuncA10"/>

          </feComponentTransfer>
          <feMerge id="feMerge18">
            <feMergeNode id="feMergeNode14"/>

            <feMergeNode id="feMergeNode16"/>

          </feMerge>
        </filter>
        <path d="m 2123,218.99998 h -706 v -77 H 158.0001 c 70.2368,252.3892 221.2525,377.0216 422,423 l 1542.9999,212 z" id="path80" class="building" style="fill:#ffffff"/>
        <g id="str1-left" class="room">
          <path class="stair" id="path4811" d="m 230.0001,141.99998 h -72 c 19.4205,69.1971 45.7633,133.4802 83,192 l 57.7901,-39 c -31.348,-43.6753 -53.8829,-95.658 -68.7901,-153 z"/>
          <path class="icon" id="stairs-46" d="m 231.05266,209.94738 v 10.52631 H 220.52624 V 231 H 210 v 10.52631 h -10.52634 v 7.89473 h 18.421 V 238.89473 H 228.421 v -10.5263 h 10.52624 v -10.52632 h 10.52642 v -7.89473 z"/>
        </g>
       
        <g id="str1-top" class="room">
          <path class="stair" id="path4809" d="m 1417,218.99998 h -162.9999 v -77 H 1417 Z"/>
          <path class="icon" id="stairs-1" d="M 1340,153.36843 V 166 h -12.6317 v 12.63157 h -12.6315 v 12.63157 h -12.6316 v 9.47368 h 22.1052 v -12.63157 h 12.6316 v -12.63157 h 12.6315 V 162.8421 h 12.6317 v -9.47367 z"/>
        </g>
        <g id="cof1" class="room">
          <path class="study" id="path150" d="M 1539,219 V 443 H 1322 V 219 Z"/>
          <use id="use4939" xlink:href="#Coffeeshop" x="1392" y="331" width="100%" height="100%" class="icon" transform="translate(0,-41.719299)"/>
        </g>
        <g id="lib1" class="room">
          <path class="study" id="path152" d="m 1539,219 v 184 h 53 v 40 h 238 V 219 Z"/>
          <path id="path241" d="m 1714.5173,315.39376 c -0.4671,-0.62397 -1.1252,-1.10268 -1.9732,-1.43703 0.046,0.78028 -0.017,1.41537 -0.1669,1.90602 l -10.0271,32.98933 c -0.1787,0.57927 -0.5688,1.04158 -1.1698,1.38706 -0.6018,0.3457 -1.2257,0.51839 -1.8719,0.51839 h -30.8503 c -2.6737,0 -4.2779,-0.77876 -4.8128,-2.33966 -0.223,-0.60175 -0.2116,-1.08045 0.033,-1.43705 0.2451,-0.33448 0.6686,-0.502 1.2704,-0.502 h 29.0455 c 2.0724,0 3.5039,-0.38458 4.2952,-1.15338 0.7917,-0.76881 1.588,-2.47923 2.3898,-5.13053 l 9.1582,-30.28263 c 0.4901,-1.64883 0.2897,-3.09735 -0.6019,-4.34487 -0.8915,-1.24751 -2.1614,-1.87162 -3.8103,-1.87162 h -25.4356 c -0.2895,0 -0.858,0.1 -1.7047,0.30065 l 0.033,-0.10068 c -0.624,-0.13336 -1.1531,-0.19458 -1.5879,-0.18395 -0.4342,0.0125 -0.8355,0.13964 -1.203,0.38508 -0.3676,0.24513 -0.6631,0.50667 -0.8858,0.78507 -0.2228,0.27863 -0.4402,0.63521 -0.6517,1.06955 -0.2113,0.43492 -0.3899,0.83612 -0.5348,1.20375 -0.145,0.36757 -0.3121,0.75776 -0.5012,1.17045 -0.1896,0.41221 -0.373,0.75195 -0.5514,1.01922 -0.133,0.1783 -0.3228,0.41222 -0.5682,0.70197 -0.2448,0.28962 -0.4454,0.546 -0.6016,0.7688 -0.1551,0.22279 -0.2563,0.42332 -0.3006,0.60174 -0.046,0.20033 -0.022,0.49557 0.068,0.88577 0.087,0.38962 0.1219,0.67351 0.1,0.85192 -0.087,0.84664 -0.3956,1.92162 -0.9191,3.22556 -0.5233,1.30369 -0.9973,2.24541 -1.4205,2.82442 -0.087,0.1112 -0.3339,0.36201 -0.7352,0.7521 -0.4013,0.38983 -0.6462,0.72933 -0.7351,1.01896 -0.087,0.11134 -0.094,0.42346 -0.017,0.93589 0.078,0.51276 0.1066,0.86901 0.083,1.06954 -0.089,0.7578 -0.3674,1.7604 -0.8356,3.00838 -0.4681,1.24764 -0.9359,2.2728 -1.4041,3.07487 -0.068,0.13349 -0.2558,0.38962 -0.5681,0.76881 -0.3117,0.37895 -0.5014,0.69095 -0.5682,0.9354 -0.046,0.17827 -0.039,0.49028 0.018,0.93586 0.057,0.44557 0.05,0.77969 -0.018,1.00234 -0.178,0.84621 -0.5125,1.86613 -1.0027,3.05849 -0.4902,1.19155 -0.9915,2.21218 -1.5043,3.05802 -0.133,0.22313 -0.3176,0.48527 -0.5513,0.78565 -0.2339,0.30041 -0.4176,0.56253 -0.5515,0.7852 -0.1329,0.2228 -0.2229,0.4567 -0.2673,0.70197 -0.022,0.13377 0.017,0.35097 0.1011,0.6522 0.087,0.30041 0.1233,0.53994 0.1,0.71882 -0.024,0.31164 -0.068,0.7243 -0.1329,1.23708 -0.068,0.51196 -0.1011,0.81235 -0.1011,0.90134 -0.4902,1.3374 -0.4681,2.75246 0.068,4.24603 0.624,1.73712 1.7322,3.20307 3.3255,4.39498 1.5931,1.19236 3.2476,1.78767 4.9635,1.78767 h 30.8506 c 1.4479,0 2.8129,-0.48479 4.0941,-1.45356 1.2813,-0.96946 2.1339,-2.16664 2.5566,-3.5936 l 9.1913,-30.28184 c 0.4908,-1.60481 0.2904,-3.04195 -0.6015,-4.31207 z m -35.5629,0.0668 0.702,-2.13935 c 0.087,-0.28964 0.2726,-0.54031 0.5513,-0.75193 0.2786,-0.21134 0.5628,-0.31752 0.8525,-0.31752 h 20.3223 c 0.3119,0 0.5343,0.10553 0.6682,0.31752 0.1329,0.21176 0.1567,0.46229 0.068,0.75193 l -0.7028,2.13935 c -0.089,0.28975 -0.2722,0.53982 -0.5517,0.75206 -0.2787,0.21134 -0.5624,0.31704 -0.8519,0.31704 h -20.3218 c -0.3119,0 -0.5347,-0.10539 -0.6685,-0.31704 -0.1329,-0.21224 -0.1551,-0.46231 -0.068,-0.75206 z m -2.7741,8.5566 0.702,-2.13901 c 0.087,-0.28962 0.2728,-0.54029 0.5513,-0.75193 0.2786,-0.21179 0.5623,-0.31751 0.8525,-0.31751 h 20.3215 c 0.3121,0 0.5352,0.10538 0.6686,0.31751 0.1329,0.21175 0.1552,0.46231 0.068,0.75193 l -0.7017,2.13901 c -0.087,0.28962 -0.2728,0.54052 -0.5513,0.75195 -0.2789,0.21178 -0.5625,0.31748 -0.8526,0.31748 h -20.3215 c -0.3117,0 -0.5346,-0.10538 -0.6683,-0.31748 -0.133,-0.21143 -0.1551,-0.46233 -0.068,-0.75195 z" style="fill-rule:evenodd;stroke:none" class="icon"/>
        </g>
        
        <g id="str1-right" class="room">
          <path class="stair" id="path3847" d="m 2122.9308,583.34183 -147.1172,-10e-6 V 517.0762 h 147.169 z"/>
          <path class="icon" id="stairs-4" d="m 2052.6317,525.73686 v 12.63157 H 2040 V 551 h -12.6315 v 12.63157 h -12.6316 v 9.47368 h 22.1052 v -12.63157 h 12.6316 v -12.63157 h 12.6315 v -12.63158 h 12.6317 v -9.47367 z"/>
        </g>
        
        <path d="m 810,396 v 63 h 102.1865 v -63 z" id="path131" class="void"/>
        
        <g id="tlt1" class="room">
          <path class="toilet" id="path118" d="m 965,459 h 142 v 56 h 91 v 69 h 80 v 77 L 965,617.76777 Z"/>
          <path d="m 1066.4706,602.17646 v -26.47057 h -5.2941 v -19.41176 c 0,-3.88235 3.1765,-7.05882 7.0588,-7.05882 h 10.5883 c 3.8824,0 7.0588,3.17647 7.0588,7.05882 v 19.41176 h -5.2941 v 26.47057 z m 44.1176,0 V 581 h 10.5883 l -8.9647,-26.9294 c -0.9882,-2.89412 -3.6706,-4.83529 -6.7059,-4.83529 h -0.4236 c -3.0353,0 -5.7528,1.94117 -6.7058,4.83529 L 1089.4118,581 H 1100 v 21.17646 z m -37.0587,-56.47057 c 3.9175,0 7.0588,-3.14116 7.0588,-7.05882 0,-3.91764 -3.1413,-7.05882 -7.0588,-7.05882 -3.9177,0 -7.0589,3.14118 -7.0589,7.05882 0,3.91766 3.1412,7.05882 7.0589,7.05882 z m 31.7647,0 c 3.9177,0 7.0587,-3.14116 7.0587,-7.05882 0,-3.91764 -3.141,-7.05882 -7.0587,-7.05882 -3.9177,0 -7.0589,3.14118 -7.0589,7.05882 0,3.91766 3.1412,7.05882 7.0589,7.05882 z" id="wc" class="icon"/>
        </g>
        <g id="str1-bottom" class="room">
          <path class="stair" id="path141" d="m 1278.0001,583.99992 v 76.84376 L 1394,676.82812 V 584 Z"/>
          <path d="m 1345.7896,606.26318 v 12.63157 h -12.6317 v 12.63157 h -12.6315 v 12.63157 h -12.6316 v 9.47368 H 1330 V 641 h 12.6316 v -12.63157 h 12.6315 v -12.63158 h 12.6317 v -9.47367 z" id="stairs" class="icon"/>
        </g>
        <g id="lft1" class="room">
          <path class="stair" id="path4805" d="m 1394,584 v 92.82812 l 148.0001,20.17175 v -113 z"/>
          <path d="M 1456.6666,601 1470,614.33334 h -10 v 13.33333 h -6.6667 v -13.33333 h -10 L 1456.6666,601 M 1490,627.66667 1476.6666,614.33334 h 10 V 601 h 6.6667 v 13.33334 h 10 L 1490,627.66667 m -33.3334,6.66667 H 1490 A 6.6666667,6.6666667 0 0 1 1496.6666,641 v 20 A 6.6666667,6.6666667 0 0 1 1490,667.66667 h -33.3334 A 6.6666667,6.6666667 0 0 1 1450,661 v -20 a 6.6666667,6.6666667 0 0 1 6.6666,-6.66666 m 0,6.66666 v 20 H 1490 v -20 z" id="path4958" class="icon"/>
        </g>
        <path d="M 1542.0001,583.99987 1542,697 l 45,6.47691 V 584 Z" id="path138" class="void"/>
       
        <path d="M 1830,736.73437 1394,677 v 129 c -1.7524,92.9797 -28.0486,153.7985 -56.6967,211.5355 L 1263,975 c -31.2611,59.0661 -77.4721,97.0735 -128,129 l 27.0568,46.5 11.0043,-6.5536 L 1249,1266 v 366 h 412 c 43.3154,-90.8711 105.2537,-122.0397 171,-141 z" id="path120" class="building" style="fill:#ffffff"/>
        <path d="m 1394,677 148,20 v 32 c -58.5066,35.94581 -60.065,52.61688 -78.5,75 H 1394 Z" id="path126" class="void"/>
        <g id="str1-down" class="room">
          <path class="stair" id="path124" d="M 1337.3033,1017.5355 1406.25,1060.25 1463.5,928 V 804 H 1394 c 0.5056,73.05056 -19.7454,144.09862 -56.6967,213.5355 z"/>
          <path class="icon" id="stairs-16" d="m 1423.158,898.89475 v 12.63157 h -12.6317 v 12.63157 h -12.6315 v 12.63157 h -12.6316 v 9.47368 h 22.1052 V 933.63157 H 1420 V 921 h 12.6315 v -12.63158 h 12.6317 v -9.47367 z"/>
        </g>
        <path d="M 1401.8136,1526 V 1384 H 1249 v 142 z" id="path156" class="void"/>
        <g id="str1-a" class="room">
          <path class="stair" id="path4829" d="m 1401.8136,1526 v 106 h -152.8135 v -106 z"/>
          <path class="icon" id="stairs-6" d="m 1337.2039,1556.2635 v 12.6315 h -12.6318 v 12.6311 h -12.6314 v 12.6318 h -12.6315 v 9.4736 h 22.105 V 1591 h 12.6318 v -12.6311 h 12.6317 v -12.6318 h 12.6315 v -9.4736 z"/>
        </g>
        <g id="lft1-a" class="room">
          <path class="stair" id="path4827" d="m 1612,1459 h -141 v -110 l 37,-37 h 104 z"/>
          <path class="icon" id="lift-0" d="m 1526.2328,1352.6978 13.3334,13.3334 h -10 v 13.3333 h -6.6667 v -13.3333 h -10 l 13.3333,-13.3334 m 33.3334,26.6667 -13.3334,-13.3333 h 10 v -13.3334 h 6.6667 v 13.3334 h 10 l -13.3333,13.3333 m -33.3334,6.6667 h 33.3334 a 6.6666667,6.6666667 0 0 1 6.6666,6.6666 v 20 a 6.6666667,6.6666667 0 0 1 -6.6666,6.6667 h -33.3334 a 6.6666667,6.6666667 0 0 1 -6.6666,-6.6667 v -20 a 6.6666667,6.6666667 0 0 1 6.6666,-6.6666 m 0,6.6666 v 20 h 33.3334 v -20 z"/>
        </g>
        <g id="tlt1-a" class="room">
          <path class="toilet" id="path4825" d="m 1612,1536 v -77 h -141 v 77 z"/>
          <path class="icon" id="wc-7" d="m 1517.8799,1532.8799 v -26.4706 h -5.2941 v -19.4117 c 0,-3.8824 3.1765,-7.0588 7.0588,-7.0588 h 10.5883 c 3.8824,0 7.0588,3.1764 7.0588,7.0588 v 19.4117 h -5.2941 v 26.4706 z m 44.1176,0 v -21.1765 h 10.5883 l -8.9647,-26.9294 c -0.9882,-2.8941 -3.6706,-4.8352 -6.7059,-4.8352 h -0.4236 c -3.0353,0 -5.7528,1.9411 -6.7058,4.8352 l -8.9647,26.9294 h 10.5882 v 21.1765 z m -37.0587,-56.4706 c 3.9175,0 7.0588,-3.1411 7.0588,-7.0588 0,-3.9176 -3.1413,-7.0588 -7.0588,-7.0588 -3.9177,0 -7.0589,3.1412 -7.0589,7.0588 0,3.9177 3.1412,7.0588 7.0589,7.0588 z m 31.7647,0 c 3.9177,0 7.0587,-3.1411 7.0587,-7.0588 0,-3.9176 -3.141,-7.0588 -7.0587,-7.0588 -3.9177,0 -7.0589,3.1412 -7.0589,7.0588 0,3.9177 3.1412,7.0588 7.0589,7.0588 z"/>
        </g>
        <g id="med1" class="room">
          <path class="study" id="path158" d="m 1471,1536 v 96 h 141 v -96 z"/>
          <text class="cab-num" id="text250-6-12-50-9-93" y="1573.1398" x="1502.2645" xml:space="preserve"><tspan y="1573.1398" x="1502.2645" id="tspan248-9-7-73-5-11">134</tspan></text>
          <use height="100%" width="100%" y="1567" x="1504" xlink:href="#FirstAid" id="use5031" class="icon"/>
        </g>
        <path d="m 1711,1459 h 49 v -146 h 72 v 178 c -84.3994,22.2916 -139.3819,71.111 -171,141 h -49 v -173 z" id="path44" class="void"/>
        <path d="m 1282.8136,457.0762 h -34 v 10 h 34 z" id="path3849" class="void"/>
        <circle id="path136" cx="1647.375" cy="901.125" r="88" class="void"/>
        <path d="m 1612,1366 h 103 v 93 h -103 z" id="path160" class="void"/>
        <path d="m 1831,1088 h -222 v 152 h 222.4258 z" id="path164" class="void"/>
        <path d="m 1609,1240 v -174 h -47 c -12.623,-0.3872 -22.8874,3.3755 -23,25 v 149 z" id="path166" class="void"/>
        
        
      </svg>
      