<?xml version="1.0" encoding="UTF-8" standalone="no"?>
<?xml-stylesheet type="text/css" href="nav-style.css"?>
<!-- Created with Inkscape (http://www.inkscape.org/) -->
<svg   xmlns:dc="http://purl.org/dc/elements/1.1/"
           xmlns:cc="http://creativecommons.org/ns#"
           xmlns:rdf="http://www.w3.org/1999/02/22-rdf-syntax-ns#"
           xmlns:svg="http://www.w3.org/2000/svg"
           xmlns="http://www.w3.org/2000/svg"
           xmlns:sodipodi="http://sodipodi.sourceforge.net/DTD/sodipodi-0.dtd"
           xmlns:inkscape="http://www.inkscape.org/namespaces/inkscape"
           width="1602.0731"
           height="1490"
           viewBox="0 0 1602.0731 1490"
           version="1.1"
           id="svg8"
           inkscape:version="0.92.4 (5da689c313, 2019-01-14)"
           sodipodi:docname="floor0.svg">
        <defs
            id="defs2">
          <symbol
              id="Coffeeshop">
            <title 
                id="title1080">Coffeeshop</title>
            <g
                id="g1086"
                style="fill-rule:evenodd;stroke:none">
              <path
                  id="path1082"
                  d="m 20,45 a 5,5 0 0 0 5,5 h 22 a 5,5 0 0 0 5,-5 v -1 h 1 A 10,10 0 0 0 53,24 H 20 Z M 52,28 v 12 h 1 a 6,6 0 0 0 0,-12 z"
                  inkscape:connector-curvature="0" />
              <path
                  id="path1084"
                  d="m 8,52 a 6,6 0 0 0 6,6 h 44 a 6,6 0 0 0 6,-6 z"
                  inkscape:connector-curvature="0" />
            </g>
          </symbol>
          <symbol
              id="FirstAid">
            <title
                id="title364">First Aid</title>
            <path
                id="path366"
                style="stroke:none"
                d="M 44,13 V 28 H 59 V 44 H 44 V 59 H 28 V 44 H 13 V 28 H 28 V 13 Z"
                inkscape:connector-curvature="0" />
          </symbol>
          <symbol
              id="FirstAid_Inv">
            <title
                id="title374">First Aid</title>
            <rect
                id="rect376"
                style="stroke:#ffffff"
                ry="6"
                height="71"
                width="71"
                y="0.5"
                x="0.5" />
            <path
                id="path378"
                style="fill:#ffffff;stroke:none"
                d="M 44,13 V 28 H 59 V 44 H 44 V 59 H 28 V 44 H 13 V 28 H 28 V 13 Z"
                inkscape:connector-curvature="0" />
          </symbol>
          <symbol
              id="CoatCheck">
            <title
                id="title260">Coat Check</title>
            <path
                inkscape:connector-curvature="0"
                d="m 9.525,8.2020833 6.614583,3.8364587 a 0.92604167,0.92604167 0 0 1 -0.396875,1.719791 H 3.3072917 A 0.92604167,0.92604167 0 0 1 2.9104167,12.038542 L 9.525,8.2020833 v -0.79375 A 1.0583333,1.0583333 0 0 0 8.9958333,6.50875 1.4552083,1.4552083 0 1 1 10.980208,5.2916667"
                style="fill:none;stroke-width:1.05833328;stroke-linecap:round"
                id="path262" />
          </symbol>
          <symbol
              id="Restaurant">
            <title
                id="title920">Restaurant</title>
            <g
                style="stroke:none"
                id="g926">
              <path
                  style="stroke-width:0.26458332"
                  inkscape:connector-curvature="0"
                  d="m 7.9375,7.9375 v 8.73125 a 0.79375,0.79375 0 0 1 -1.5875,0 V 7.9375 A 1.0583333,1.0583333 0 0 1 5.2916667,6.8791667 v -4.7625 a 0.26458333,0.26458333 0 0 1 0.5291666,0 V 5.8208333 H 6.35 V 2.1166667 a 0.26458335,0.26458335 0 0 1 0.5291667,0 V 5.8208333 H 7.4083333 V 2.1166667 a 0.26458335,0.26458335 0 0 1 0.5291667,0 V 5.8208333 H 8.4666667 V 2.1166667 a 0.26458333,0.26458333 0 0 1 0.5291666,0 v 4.7625 A 1.0583333,1.0583333 0 0 1 7.9375,7.9375 Z"
                  id="path922" />
              <path
                  style="stroke-width:0.26458332"
                  inkscape:connector-curvature="0"
                  d="m 13.229167,16.66875 a 0.79375,0.79375 0 0 1 -1.5875,0 v -5.291667 h -0.79375 V 3.0427083 a 1.190625,1.190625 0 0 1 2.38125,0 z"
                  id="path924" />
            </g>
          </symbol>
          <symbol
              id="Campfire">
            <title
                id="title2585">Campfire</title>
            <g
                style="stroke:none"
                id="g2599">
              <path
                  style="stroke-width:0.26458332"
                  inkscape:connector-curvature="0"
                  d="M 3.175,13.361458 H 1.7197917 v 2.778125 c 0,0.926042 0.79375,1.521354 1.7197916,1.521354 H 15.610417 c 0.926041,0 1.719791,-0.595312 1.719791,-1.521354 V 13.361458 H 15.875 V 15.875 c 0,0.264583 -0.264583,0.529167 -0.529167,0.529167 H 3.7041667 C 3.4395833,16.404167 3.175,16.139583 3.175,15.875 Z"
                  id="path2587" />
              <path
                  style="stroke-width:0.26458332"
                  inkscape:connector-curvature="0"
                  d="M 8.5989583,14.089062 4.7625,15.345833 v -2.116666 l 0.6945312,-0.231511 z"
                  id="path2589" />
              <path
                  style="stroke-width:0.26458332"
                  inkscape:connector-curvature="0"
                  d="m 14.2875,15.213542 v -2.116667 l -9.525,-3.175 v 2.116667 z"
                  id="path2591" />
              <path
                  style="stroke-width:0.26458332"
                  inkscape:connector-curvature="0"
                  d="M 10.31875,11.046354 14.2875,9.6903646 V 11.90625 l -0.661458,0.23151 z"
                  id="path2593" />
              <path
                  style="stroke-width:0.26458332"
                  inkscape:connector-curvature="0"
                  d="M 7.0114583,9.921875 C 6.6145833,9.525 4.4979167,7.0114583 6.746875,4.7625 8.5989583,2.9104167 8.73125,1.5875 8.0697917,0.79375 c 0,0 4.6302083,1.8520833 1.9843753,6.35 C 9.525,7.9375 8.4666667,8.8635417 8.9958333,10.583333 Z"
                  id="path2595" />
              <path
                  style="stroke-width:0.26458332"
                  inkscape:connector-curvature="0"
                  d="M 9.7895833,10.517187 C 9.6572917,10.186458 9.2604167,9.3927083 10.583333,7.8052083 c 0.79375,-0.9260416 0.926042,-2.1166666 1.058334,-2.6458333 0,0 2.38125,1.3229167 0.06615,4.6963542 z"
                  id="path2597" />
            </g>
          </symbol>
          <rect
              x="0"
              width="128"
              style="opacity:0.2"
              height="128"
              id="SVGID_2_"
              y="0" />
          <radialGradient
              id="SVGID_4_"
              cx="115.8793"
              cy="66.055901"
              gradientUnits="userSpaceOnUse"
              r="28.287399"
              gradientTransform="matrix(0.26458333,0,0,0.26458333,-15.629556,-298.56125)">
            <stop
                offset="1.733897e-03"
                style="stop-color:#A3A3A3"
                id="stop291" />
            <stop
                offset="0.1847"
                style="stop-color:#B7B7B7"
                id="stop293" />
            <stop
                offset="0.5159"
                style="stop-color:#D5D5D5"
                id="stop295" />
            <stop
                offset="0.7993"
                style="stop-color:#E7E7E7"
                id="stop297" />
            <stop
                offset="1"
                style="stop-color:#EEEEEE"
                id="stop299" />
          </radialGradient>
          <radialGradient
              id="SVGID_3_"
              cx="15.1709"
              cy="65.8125"
              gradientUnits="userSpaceOnUse"
              r="36.0965"
              gradientTransform="matrix(0.26458333,0,0,0.26458333,-15.629556,-298.56125)">
            <stop
                offset="0"
                style="stop-color:#A8A8A8"
                id="stop272" />
            <stop
                offset="0.1684"
                style="stop-color:#BFBFBF"
                id="stop274" />
            <stop
                offset="0.4001"
                style="stop-color:#D9D9D9"
                id="stop276" />
            <stop
                offset="0.6095"
                style="stop-color:#E9E9E9"
                id="stop278" />
            <stop
                offset="0.7755"
                style="stop-color:#EEEEEE"
                id="stop280" />
          </radialGradient>
        </defs>
        <sodipodi:namedview
            id="base"
            pagecolor="#ffffff"
            bordercolor="#666666"
            borderopacity="1.0"
            inkscape:pageopacity="0.0"
            inkscape:pageshadow="2"
            inkscape:zoom="4"
            inkscape:cx="858.04365"
            inkscape:cy="964.83894"
            inkscape:document-units="mm"
            inkscape:current-layer="svg8"
            showgrid="false"
            inkscape:snap-grids="false"
            inkscape:snap-to-guides="true"
            inkscape:snap-others="true"
            inkscape:object-nodes="true"
            inkscape:snap-nodes="true"
            inkscape:snap-global="false"
            inkscape:snap-bbox="true"
            inkscape:window-width="1920"
            inkscape:window-height="1017"
            inkscape:window-x="-8"
            inkscape:window-y="-8"
            inkscape:window-maximized="1" />
        <filter
            id="dropShadow"
            height="1.3">
          <feGaussianBlur
              in="SourceAlpha"
              stdDeviation="3"
              id="feGaussianBlur6" />
          <!-- stdDeviation is how much to blur -->
          <feOffset
              dx="10"
              dy="10"
              result="offsetblur"
              id="feOffset8" />
          <!-- how much to offset -->
          <feComponentTransfer
              id="feComponentTransfer12">
            <feFuncA
                type="linear"
                slope="0.5"
                id="feFuncA10" />
            <!-- slope is the opacity of the shadow -->
          </feComponentTransfer>
          <feMerge
              id="feMerge18">
            <feMergeNode
                id="feMergeNode14" />
            <!-- this contains the offset blurred image -->
            <feMergeNode
                in="SourceGraphic"
                id="feMergeNode16" />
            <!-- this contains the element that the filter is applied to -->
          </feMerge>
        </filter>
        <metadata
            id="metadata5">
          <rdf:RDF>
            <cc:Work
                rdf:about="">
              <dc:format>image/svg+xml</dc:format>
              <dc:type
                  rdf:resource="http://purl.org/dc/dcmitype/StillImage" />
              <dc:title />
            </cc:Work>
          </rdf:RDF>
        </metadata>
        <path
            d="m 867.34766,521.48242 0.74218,124.64063 c -1.71537,94.50685 -27.45667,156.32249 -55.5,215.00781 l -7.88281,-4.68359 -54.56641,72.02343 -18.61328,17.95703 c -17.15368,15.74371 -34.45891,31.08144 -52.62109,44.11915 l 52.66016,77.68162 -5.41407,45.4492 v 372.0118 h 403.30076 c 42.4009,-92.3636 103.0324,-124.0447 167.3907,-143.3165 l -1.6133,-415.70503 h -0.1914 v 0.004 l -53.252,0.0879 v -64.52735 c 24.6715,-23.83674 44.4525,-50.9453 52.8555,-83.59375 v -0.0254 h 0.014 l -0.3476,-89.69531 c -3e-4,-10e-4 3e-4,-0.003 0,-0.004 -12.9021,-45.68926 -32.5891,-75.14463 -48.8066,-93.23828 v -26.64062 z"
            id="path120"
            class="building"
            inkscape:connector-curvature="0"
            sodipodi:nodetypes="ccccccccccccccccccccccccc" />
        <path
            inkscape:connector-curvature="0"
            id="path80"
            d="M 96.4082,1.2929 V 419.22339 L 1601.3547,619.30667 V 76.2332 H 942.56489 v 42.5192 H 706.92413 V 1.2929 Z"
            class="building" />
        <path
            class="void"
            sodipodi:nodetypes="cccccccccc"
            inkscape:connector-curvature="0"
            id="path672"
            d="M 430.33249,373.42654 V 195.4098 h 295.26999 l -0.038,-122.7184 V 0 H 0 v 397.28543 c 76.40494,28.77701 221.2421,38.01843 308.91996,50.28931 l -1.43681,-76.15237 z" />
        <g
            id="eat0-2"
            class="room">
          <path
              class="study"
              d="M 725.56421,373.42654 H 430.33242 V 195.4098 h 295.26999 z"
              id="path47474"
              inkscape:connector-curvature="0" />
          <circle
              id="circle247"
              r="29.237732"
              cy="286.67169"
              cx="576.16956"
              class="icon"
              style="stroke:none" />
          <path
              inkscape:connector-curvature="0"
              d="m 544.44139,250.80307 c -0.0771,-1.63461 -0.4472,-2.3748 -1.118,-2.3748 -0.7402,0 -1.1103,0.74019 -1.1874,2.3748 l -0.88669,13.06137 c 0,0.74019 -0.4472,1.26451 -1.0409,1.26451 -0.5166,0 -0.9638,-0.51659 -0.9638,-1.26451 l -1.0409,-13.06137 c -0.14649,-1.70399 -0.43949,-2.3748 -1.11029,-2.3748 -0.67081,0 -1.0409,0.67081 -1.1103,2.3748 l -1.0409,13.06137 c -0.14649,0.74019 -0.5937,1.26451 -1.0409,1.26451 -0.4472,0 -0.88669,-0.51659 -1.0409,-1.26451 l -0.80959,-13.06137 c -0.14649,-1.63461 -0.4472,-2.3748 -1.18739,-2.3748 -0.7402,0 -1.04091,0.74019 -1.1874,2.3748 -0.3701,6.45358 -1.1874,12.90715 -1.1874,23.30075 0,2.37478 0.7402,4.30238 2.1512,5.42039 l 2.6755,2.1512 c 0.6708,0.5166 1.11029,1.41098 1.04089,2.89137 l -1.07945,36.78619 c -0.0308,2.13578 1.68857,3.89375 3.82435,3.89375 2.14348,0 3.86289,-1.76569 3.82434,-3.90917 l -1.15655,-36.77077 c -0.0771,-1.48808 0.37009,-2.45188 1.0409,-2.96848 l 2.66779,-2.07409 c 1.41099,-1.11029 2.22829,-3.115 2.22829,-5.42039 -0.008,-10.38588 -0.82501,-16.84717 -1.2645,-23.30075 z"
              id="path283"
              class="icon"
              style="stroke:none" />
          <path
              inkscape:connector-curvature="0"
              d="m 619.46332,285.10651 v -33.52469 c 0,-2.81429 -0.8173,-3.57762 -2.43648,-2.51358 -4.11734,2.70632 -8.1036,15.87566 -8.1036,32.00575 0,5.9447 5.8753,5.14282 6.13745,6.9162 l -1.81964,33.55555 c -0.0308,2.13578 1.7117,3.89375 3.84748,3.89375 2.14348,0 3.50822,-1.76569 3.46966,-3.90917 z"
              id="path302"
              class="icon"
              style="stroke:none" />
        </g>
        <g
            id="eat0-1"
            class="room">
          <path
              d="m 1073.9243,374.95054 v -74.1128 h 19.6881 V 72.6914 H 725.56421 v 300.73514 z"
              id="path656"
              inkscape:connector-curvature="0"
              class="study" />
          <circle
              id="circle247-1"
              r="29.23773"
              cy="224.27354"
              cx="913.32434"
              class="icon"
              style="stroke:none" />
          <path
              inkscape:connector-curvature="0"
              d="m 881.59615,188.4049 c -0.0771,-1.6346 -0.4472,-2.3748 -1.118,-2.3748 -0.7402,0 -1.1103,0.7402 -1.1874,2.3748 l -0.88669,13.0614 c 0,0.7402 -0.4472,1.2645 -1.0409,1.2645 -0.5166,0 -0.9638,-0.5166 -0.9638,-1.2645 l -1.0409,-13.0614 c -0.14649,-1.704 -0.43949,-2.3748 -1.11029,-2.3748 -0.67081,0 -1.0409,0.6708 -1.1103,2.3748 l -1.0409,13.0614 c -0.14649,0.7402 -0.5937,1.2645 -1.0409,1.2645 -0.4472,0 -0.88669,-0.5166 -1.0409,-1.2645 l -0.80959,-13.0614 c -0.14649,-1.6346 -0.4472,-2.3748 -1.18739,-2.3748 -0.7402,0 -1.04091,0.7402 -1.1874,2.3748 -0.3701,6.4536 -1.1874,12.9072 -1.1874,23.3008 0,2.3747 0.7402,4.3023 2.1512,5.4203 l 2.6755,2.1512 c 0.6708,0.5166 1.11029,1.411 1.04089,2.8914 l -1.07945,36.78622 c -0.0308,2.1358 1.68857,3.8938 3.82435,3.8938 2.14348,0 3.86289,-1.7657 3.82434,-3.9092 l -1.15655,-36.77082 c -0.0771,-1.4881 0.37009,-2.4519 1.0409,-2.9685 l 2.66779,-2.0741 c 1.41099,-1.1103 2.22829,-3.115 2.22829,-5.4203 -0.008,-10.3859 -0.82501,-16.8472 -1.2645,-23.3008 z"
              id="path283-7"
              class="icon"
              style="stroke:none" />
          <path
              inkscape:connector-curvature="0"
              d="M 956.61808,222.70832 V 189.1836 c 0,-2.8142 -0.8173,-3.5776 -2.43648,-2.5135 -4.11734,2.7063 -8.1036,15.8756 -8.1036,32.0057 0,5.94472 5.8753,5.14282 6.13746,6.91622 l -1.81965,33.5556 c -0.0308,2.1358 1.7117,3.8937 3.84748,3.8937 2.14348,0 3.50822,-1.7657 3.46967,-3.9091 z"
              id="path302-9"
              class="icon"
              style="stroke:none" />
        </g>
        <path
            class="void"
            sodipodi:nodetypes="ccccccccc"
            inkscape:connector-curvature="0"
            id="path670"
            d="m 1073.9244,370.01083 v -72.90159 h 19.688 V 72.6914 h 508.4608 v 550.37293 l -300.299,-43.47829 4.3105,-210.219 z" />
        <path
            class="void"
            sodipodi:nodetypes="ccccc"
            inkscape:connector-curvature="0"
            id="path664"
            d="m 536.29925,415.60511 v 62.03425 l -46.70026,-5.91508 v -56.13385 z" />
        <g
            id="tlt0"
            class="room">
          <path
              d="m 536.29918,477.63936 v -62.03425 h 135.78106 v 18.31967 h 76.8708 l 0.17981,72.1284 z"
              id="path662"
              inkscape:connector-curvature="0"
              sodipodi:nodetypes="ccccccc"
              class="toilet" />
          <path
              inkscape:connector-curvature="0"
              d="m 616.75162,478.94516 v -21.70995 h -4.342 v -15.92069 c 0,-3.18412 2.6052,-5.78938 5.78934,-5.78938 h 8.684 c 3.18414,0 5.78934,2.60526 5.78934,5.78938 v 15.92069 h -4.342 v 21.70995 z m 36.18335,0 v -17.36801 h 8.684 l -7.35246,-22.0863 c -0.81047,-2.37365 -3.01044,-3.96571 -5.49986,-3.96571 h -0.34736 c -2.48942,0 -4.71831,1.59206 -5.49987,3.96571 l -7.35246,22.0863 h 8.68401 v 17.36801 z m -30.39401,-46.31465 c 3.21308,0 5.78934,-2.57626 5.78934,-5.78937 0,-3.213 -2.57626,-5.78926 -5.78934,-5.78926 -3.21309,0 -5.78934,2.57626 -5.78934,5.78926 0,3.21311 2.57625,5.78937 5.78934,5.78937 z m 26.05201,0 c 3.21307,0 5.78934,-2.57626 5.78934,-5.78937 0,-3.213 -2.57627,-5.78926 -5.78934,-5.78926 -3.21309,0 -5.78934,2.57626 -5.78934,5.78926 0,3.21311 2.57625,5.78937 5.78934,5.78937 z"
              id="path1043"
              class="icon" />
        </g>
        <path
            class="void"
            sodipodi:nodetypes="ccccc"
            inkscape:connector-curvature="0"
            id="path668"
            d="m 748.9511,433.92478 h 120.69432 l 0.19197,88.28956 -120.70667,-16.16116 z" />
        <g
            id="lft0"
            class="room">
          <path
              d="M 1012.7902,434.6432 V 542.04677 L 912.93006,530.01326 912.75025,434.6432 Z"
              id="path666"
              inkscape:connector-curvature="0"
              sodipodi:nodetypes="ccccc"
              class="stair" />
          <path
              id="path4927"
              d="m 947.3493,453.11754 12.43813,12.43795 h -9.32851 v 12.43795 h -6.21904 v -12.43795 h -9.32848 l 12.4379,-12.43795 m 31.09508,24.8759 -12.43809,-12.43795 h 9.32855 v -12.43795 h 6.219 v 12.43795 h 9.32851 l -12.43797,12.43795 m -31.09508,6.21903 h 31.09508 a 6.2189944,6.2189944 0 0 1 6.21893,6.21904 v 18.65698 a 6.2189944,6.2189944 0 0 1 -6.21893,6.21891 H 947.3493 a 6.2189944,6.2189944 0 0 1 -6.21889,-6.21891 v -18.65698 a 6.2189944,6.2189944 0 0 1 6.21889,-6.21904 m 0,6.21904 v 18.65698 h 31.09508 v -18.65698 z"
              inkscape:connector-curvature="0"
              class="icon" />
        </g>
        <g
            id="gar0"
            class="room">
          <path
              d="m 1072.7813,656.63577 c 26.5713,-15.68553 56.4833,-22.01716 96.5198,0 56.6835,44.7088 49.3694,114.30834 0,150.87559 -34.4708,19.5884 -67.1279,21.04077 -97.5358,0 l -20.8279,35.0519 v 55.37184 h 137.1596 c 151.5634,-75.61538 126.7651,-223.22677 57.4038,-302.25917 v -26.73342 l -194.5634,-22.85994 v 78.04129 z"
              id="path630"
              inkscape:connector-curvature="0"
              sodipodi:nodetypes="cccccccccccc"
              class="study" />
          <path
              inkscape:connector-curvature="0"
              d="m 1283.2278,745.98841 h -0.037 c 2.7555,1.57979 4.5925,4.55568 4.5925,7.9357 a 9.184833,9.184833 0 0 1 -9.1849,9.18483 h -55.109 a 9.184833,9.184833 0 0 1 -9.1848,-9.18483 c 0,-3.38002 1.837,-6.35591 4.5924,-7.9357 h -0.037 l 28.5097,-16.45922 c 0,0 0,-3.15958 3.6739,-6.83352 3.674,0 7.3479,-3.30654 7.3479,-7.34786 a 7.3478664,7.3478664 0 0 0 -7.3479,-7.34787 7.3478664,7.3478664 0 0 0 -7.3478,7.34787 h -7.3479 a 14.695733,14.695733 0 0 1 14.6957,-14.69573 14.695733,14.695733 0 0 1 14.6958,14.69573 c 0,6.83351 -4.6659,12.56485 -11.0218,14.21812 l 28.5097,16.42248 m -59.7382,9.77266 v 0 h 55.109 v 0 c 0.6246,0 1.2492,-0.33065 1.5798,-0.91848 0.5144,-0.91848 0.2572,-1.98392 -0.6613,-2.49827 l -28.473,-16.45923 -28.473,16.45923 c -0.9184,0.51435 -1.1756,1.57979 -0.6613,2.49827 0.3307,0.58783 0.9553,0.91848 1.5798,0.91848 z"
              id="path148"
              class="icon"
              style="stroke:none" />
        </g>
        <path
            class="void"
            sodipodi:nodetypes="ccccccc"
            inkscape:connector-curvature="0"
            id="path632"
            d="m 1241.7862,926.75986 -1.4368,57.83273 c -0.6802,14.52642 -7.4621,22.95101 -20.1158,25.50391 l -135.4218,0.3592 c -12.3385,-2.2975 -27.9377,-15.83534 -33.7658,-33.40645 v -50.10966 z" />
        <g
            id="str0-up"
            class="room">
          <path
              d="m 925.62026,745.56211 7.11203,-41.14789 -30.73402,-48.25987 -33.78182,-3.30199 -2.54002,36.0679 -3.81002,28.44792 -12.69997,53.84786 -16.76393,47.75187 -19.81196,42.1639 27.4319,17.27195 24.89199,-51.81588 14.73197,-43.17988 11.17599,-41.14789 4.06396,-18.79594 c 13.24014,1.37497 22.89903,9.91244 30.7339,22.09794 z"
              id="path596"
              inkscape:connector-curvature="0"
              sodipodi:nodetypes="ccccccccccccccc"
              class="stair" />
          <path
              id="path4900"
              d="m 897.34057,680.40697 v 7.65932 h -7.65931 v 7.65932 h -7.6594 v 7.6594 h -7.65932 v 5.74451 h 13.40384 v -7.6594 h 7.65939 v -7.65932 h 7.65932 v -7.65932 h 7.65932 v -5.74451 z"
              inkscape:connector-curvature="0"
              class="icon" />
        </g>
        <path
            class="void"
            sodipodi:nodetypes="cccccc"
            inkscape:connector-curvature="0"
            id="path626"
            d="m 743.90247,935.99467 34.84325,34.12486 c 33.12418,19.51652 60.86875,8.8603 82.97732,-33.40643 l 20.11573,-32.32886 -77.13142,-47.93761 z" />
        <path
            class="void"
            sodipodi:nodetypes="cccccccc"
            inkscape:connector-curvature="0"
            id="path622"
            d="m 678.90556,990.54618 c 18.44836,-13.18005 35.63995,-28.11957 52.40475,-43.65663 l 35.24236,37.19091 c 6.10941,11.69549 10.77631,24.02214 11.49473,38.07614 l -0.71846,38.0763 -34.48406,0.7183 -11.49473,6.4658 z" />
        <rect
            class="void"
            y="1347.5139"
            x="726.83429"
            height="68.579811"
            width="141.73155"
            id="rect604" />
        <rect
            class="void"
            y="1426.7616"
            x="935.62177"
            height="58.8792"
            width="145.28755"
            id="rect610"
            style="stroke-width:0.96491838" />
        <rect
            class="void"
            y="1282.49"
            x="935.62177"
            height="67.055779"
            width="145.28763"
            id="rect612" />
        <rect
            class="void"
            y="1138.2184"
            x="1080.8478"
            height="218.15575"
            width="72.213776"
            id="rect616" />
        <rect
            class="void"
            y="1124.325"
            x="1227.777"
            height="164.51784"
            width="68.968178"
            id="rect618" />
        <g
            id="lft0-a"
            class="room">
          <path
              d="m 935.62169,1282.4901 v -107.1878 l 38.09987,-37.0839 h 107.12614 l 0.062,144.2717 z"
              id="path614"
              inkscape:connector-curvature="0"
              sodipodi:nodetypes="cccccc"
              class="stair" />
          <path
              id="path4927-5"
              d="m 995.98565,1180.1587 12.43815,12.4379 h -9.32853 v 12.438 h -6.21905 v -12.438 h -9.32847 l 12.4379,-12.4379 m 31.09505,24.8759 -12.4381,-12.438 h 9.3286 v -12.4379 h 6.219 v 12.4379 h 9.3285 l -12.438,12.438 m -31.09505,6.219 h 31.09505 a 6.2189944,6.2189944 0 0 1 6.219,6.2191 v 18.657 a 6.2189944,6.2189944 0 0 1 -6.219,6.2189 h -31.09505 a 6.2189944,6.2189944 0 0 1 -6.21889,-6.2189 v -18.657 a 6.2189944,6.2189944 0 0 1 6.21889,-6.2191 m 0,6.2191 v 18.657 h 31.09505 v -18.657 z"
              inkscape:connector-curvature="0"
              class="icon" />
        </g>
        
        <g
            id="tlt0-a"
            class="room">
          <rect
              id="rect608"
              width="145.28761"
              height="77.215782"
              x="935.6217"
              y="1349.5459"
              class="toilet" />
          <path
              class="icon"
              id="path1043-8"
              d="m 989.6897,1416.8931 v -21.71 h -4.342 v -15.9207 c 0,-3.1841 2.6052,-5.7893 5.78934,-5.7893 h 8.684 c 3.18416,0 5.78936,2.6052 5.78936,5.7893 v 15.9207 h -4.342 v 21.71 z m 36.1834,0 v -17.368 h 8.684 l -7.3525,-22.0863 c -0.8105,-2.3737 -3.0104,-3.9657 -5.4999,-3.9657 h -0.3473 c -2.4894,0 -4.7183,1.592 -5.4999,3.9657 l -7.3524,22.0863 h 8.684 v 17.368 z m -30.39406,-46.3147 c 3.21308,0 5.78936,-2.5762 5.78936,-5.7893 0,-3.213 -2.57628,-5.7893 -5.78936,-5.7893 -3.21309,0 -5.78934,2.5763 -5.78934,5.7893 0,3.2131 2.57625,5.7893 5.78934,5.7893 z m 26.05206,0 c 3.213,0 5.7893,-2.5762 5.7893,-5.7893 0,-3.213 -2.5763,-5.7893 -5.7893,-5.7893 -3.2131,0 -5.7894,2.5763 -5.7894,5.7893 0,3.2131 2.5763,5.7893 5.7894,5.7893 z"
              inkscape:connector-curvature="0" />
        </g>
        
      </svg>
