<?xml version="1.0" encoding="UTF-8" standalone="no"?>
<?xml-stylesheet type="text/css" href="nav-style.css"?>
<!-- Created with Inkscape (http://www.inkscape.org/) -->
<svg  xmlns:dc="http://purl.org/dc/elements/1.1/" xmlns:cc="http://creativecommons.org/ns#" xmlns:rdf="http://www.w3.org/1999/02/22-rdf-syntax-ns#" xmlns:svg="http://www.w3.org/2000/svg" xmlns="http://www.w3.org/2000/svg" xmlns:sodipodi="http://sodipodi.sourceforge.net/DTD/sodipodi-0.dtd" xmlns:inkscape="http://www.inkscape.org/namespaces/inkscape" version="1.1" id="svg68" width="1966" height="635" viewBox="0 0 1966 635">
        <defs id="defs154"/>
        <metadata id="metadata74">

        </metadata>

        <filter id="dropShadow" height="130%">
          <feGaussianBlur in="SourceAlpha" stdDeviation="3" id="feGaussianBlur6"/>

          <feOffset dx="10" dy="10" result="offsetblur" id="feOffset8"/>

          <feComponentTransfer id="feComponentTransfer12">
            <feFuncA type="linear" slope="0.5" id="feFuncA10"/>

          </feComponentTransfer>
          <feMerge id="feMerge18">
            <feMergeNode id="feMergeNode14"/>

            <feMergeNode id="feMergeNode16"/>

          </feMerge>
        </filter>
        <path d="m 1965.0002,77.000001 h -706 V 7.000001e-7 H 1.965e-4 C 70.236996,252.3893 221.2527,377.0216 422.0002,423 l 1543,212 z" id="path80" class="building" style="fill:#ffffff"/>
        <g id="str2-left" class="room">
          <path class="stair" id="path179" d="M 72.0002,0 H 2.005e-4 C 19.4207,69.1971 45.7635,133.4801 83.0002,192 l 57.7901,-39 C 97.63451,83.51183 87.28778,51.14322 72.0002,0 Z"/>
          <path d="M 73.73384,74.55235 V 85.07866 H 63.20742 V 95.60497 H 52.68118 v 10.52631 H 42.15484 v 7.89473 h 18.421 V 103.4997 H 71.10218 V 92.9734 H 81.62842 V 82.44708 h 10.52642 v -7.89473 z" id="stairs-46" class="icon"/>
        </g>
        <g id="str2-top" class="room">
          <path class="stair" id="path163" d="m 1259.0002,77 h -163 V 0 h 163 z"/>
          <path d="m 1188.7339,13.23656 v 12.63157 h -12.6317 V 38.4997 h -12.6315 v 12.63157 h -12.6316 v 9.47368 h 22.1052 V 47.97338 h 12.6316 V 35.34181 h 12.6315 V 22.71023 h 12.6317 v -9.47367 z" id="stairs-1" class="icon"/>
        </g>
        <g id="str2-right" class="room">
          <path class="stair" id="path151" d="m 1965.0002,376 h -150 v 65 h 150 z"/>
          <path d="m 1898.7339,383.23656 v 12.63157 h -12.6317 v 12.63157 h -12.6315 v 12.63157 h -12.6316 v 9.47368 h 22.1052 v -12.63157 h 12.6316 v -12.63157 h 12.6315 v -12.63158 h 12.6317 v -9.47367 z" id="stairs-4" class="icon"/>
        </g>
        <g id="tlt2" class="room">
          <path class="toilet" id="path139" d="m 845.00021,317 h 194.99999 v 125 h 80 v 76.84383 L 845.00021,481 Z"/>
          <path class="icon" id="wc" d="M 916.98448,434.97027 V 408.4997 h -5.2941 v -19.41176 c 0,-3.88235 3.1765,-7.05882 7.0588,-7.05882 h 10.5883 c 3.8824,0 7.0588,3.17647 7.0588,7.05882 v 19.41176 h -5.2941 v 26.47057 z m 44.1176,0 v -21.17646 h 10.5883 l -8.9647,-26.9294 c -0.9882,-2.89412 -3.6706,-4.83529 -6.7059,-4.83529 h -0.4236 c -3.0353,0 -5.7528,1.94117 -6.7058,4.83529 l -8.9647,26.9294 h 10.5882 v 21.17646 z m -37.0587,-56.47057 c 3.9175,0 7.0588,-3.14116 7.0588,-7.05882 0,-3.91764 -3.1413,-7.05882 -7.0588,-7.05882 -3.9177,0 -7.0589,3.14118 -7.0589,7.05882 0,3.91766 3.1412,7.05882 7.0589,7.05882 z m 31.7647,0 c 3.9177,0 7.0587,-3.14116 7.0587,-7.05882 0,-3.91764 -3.141,-7.05882 -7.0587,-7.05882 -3.9177,0 -7.0589,3.14118 -7.0589,7.05882 0,3.91766 3.1412,7.05882 7.0589,7.05882 z"/>
        </g>
        <g id="str2-bottom" class="room">
          <path class="stair" id="path114" d="m 1120.0002,441.99997 v 76.84368 l 120,16.5477 v -93.39138 z"/>
          <path class="icon" id="stairs" d="m 1186.6287,459.02603 v 12.63157 h -12.6317 v 12.63157 h -12.6315 v 12.63157 h -12.6316 v 9.47368 h 22.1052 v -12.63157 h 12.6316 v -12.63157 h 12.6315 V 468.4997 h 12.6317 v -9.47367 z"/>
        </g>
        <g id="lft2" class="room">
          <path class="stair" id="path130" d="m 1240.0002,442.00002 v 93.3914 l 144,19.6086 v -113 z"/>
          <path class="icon" id="lift" d="m 1292.7688,460.16636 13.3334,13.33334 h -10 v 13.33333 h -6.6667 V 473.4997 h -10 l 13.3333,-13.33334 m 33.3334,26.66667 -13.3334,-13.33333 h 10 v -13.33334 h 6.6667 v 13.33334 h 10 l -13.3333,13.33333 m -33.3334,6.66667 h 33.3334 a 6.6666667,6.6666667 0 0 1 6.6666,6.66666 v 20 a 6.6666667,6.6666667 0 0 1 -6.6666,6.66667 h -33.3334 a 6.6666667,6.6666667 0 0 1 -6.6666,-6.66667 v -20 a 6.6666667,6.6666667 0 0 1 6.6666,-6.66666 m 0,6.66666 v 20 h 33.3334 v -20 z"/>
        </g>
        <path d="m 1676.0002,302 v 21 h -169 v -21 z" id="path46" class="void"/>
        <path d="m 1392.0002,302 v 21 h -225 v -21 z" id="path48" class="void"/>
        
        </svg>
      