<?xml version="1.0" encoding="UTF-8" standalone="no"?>
<?xml-stylesheet type="text/css" href="nav-style.css"?>
<!-- Created with Inkscape (http://www.inkscape.org/) -->
<svg  xmlns:dc="http://purl.org/dc/elements/1.1/" xmlns:cc="http://creativecommons.org/ns#" xmlns:rdf="http://www.w3.org/1999/02/22-rdf-syntax-ns#" xmlns:svg="http://www.w3.org/2000/svg" xmlns="http://www.w3.org/2000/svg" xmlns:sodipodi="http://sodipodi.sourceforge.net/DTD/sodipodi-0.dtd" xmlns:inkscape="http://www.inkscape.org/namespaces/inkscape" version="1.1" id="svg2" width="1966" height="635" viewBox="0 0 1966 635" enable-background="new">
        <metadata id="metadata8">

        </metadata>
        <defs id="defs6">
          <pattern y="0" x="0" height="6" width="6" patternUnits="userSpaceOnUse" id="EMFhbasepattern"/>
        </defs>

        <filter id="dropShadow" height="130%">
          <feGaussianBlur in="SourceAlpha" stdDeviation="3" id="feGaussianBlur7"/>

          <feOffset dx="10" dy="10" result="offsetblur" id="feOffset9"/>

          <feComponentTransfer id="feComponentTransfer13">
            <feFuncA type="linear" slope="0.5" id="feFuncA11"/>

          </feComponentTransfer>
          <feMerge id="feMerge19">
            <feMergeNode id="feMergeNode15"/>

            <feMergeNode id="feMergeNode17"/>

          </feMerge>
        </filter>
        <path d="m 1965.1696,76.42293 h -706 v -77 H 0.1697 c 70.2368,252.3892 221.2525,377.0216 422,423 l 1542.9999,212 z" id="path80" class="building" style="fill:#ffffff"/>
        <g id="str4-left" class="room" transform="translate(1e-4,1)">
          <path class="stair" id="path4811" d="M 71.9999,-1 H -9.9999997e-5 C 19.4204,68.1971 45.7632,132.4802 82.9999,191 L 140.79,152 C 109.442,108.3247 86.9071,56.342 71.9999,-1 Z"/>
          <path class="icon" id="stairs-46" d="M 74.63156,70.57895 V 81.10526 H 64.10514 V 91.63157 H 53.5789 v 10.52631 H 43.05256 v 7.89473 h 18.421 V 99.5263 H 71.9999 V 89 H 82.52614 V 78.47368 h 10.52642 v -7.89473 z"/>
        </g>
        <g id="str4-top" class="room">
          <path class="stair" id="path4809" d="M 1258.9999,77 H 1096 V 0 h 162.9999 z"/>
          <path class="icon" id="stairs-1" d="m 1174.6316,13.73686 v 12.63157 h -12.6317 V 39 h -12.6315 v 12.63157 h -12.6316 v 9.47368 h 22.1052 V 48.47368 h 12.6316 V 35.84211 h 12.6315 V 23.21053 h 12.6317 v -9.47367 z"/>
        </g>
        <g id="str4-right" class="room">
          <path class="stair" id="path3847" d="M 1964.9999,434.00002 1822.0844,434 v -63.40698 h 142.9658 z"/>
          <path class="icon" id="stairs-4" d="m 1902.5264,376.89475 v 12.63157 h -12.6317 v 12.63157 h -12.6315 v 12.63157 h -12.6316 v 9.47368 h 22.1052 v -12.63157 h 12.6316 V 399 h 12.6315 v -12.63158 h 12.6317 v -9.47367 z"/>
        </g>
        <g id="tlt4" class="room">
          <path class="toilet" id="path139" d="m 845.9999,317.20705 h 195 v 125 h 80 v 76.8437 l -275,-37.8437 z"/>
          <path d="M 922.5881,435.47057 V 409 h -5.2941 v -19.41176 c 0,-3.88235 3.1765,-7.05882 7.0588,-7.05882 h 10.5883 c 3.8824,0 7.0588,3.17647 7.0588,7.05882 V 409 h -5.2941 v 26.47057 z m 44.1176,0 v -21.17646 h 10.5883 l -8.9647,-26.9294 c -0.9882,-2.89412 -3.6706,-4.83529 -6.7059,-4.83529 h -0.4236 c -3.0353,0 -5.7528,1.94117 -6.7058,4.83529 l -8.9647,26.9294 h 10.5882 v 21.17646 z M 929.647,379 c 3.9175,0 7.0588,-3.14116 7.0588,-7.05882 0,-3.91764 -3.1413,-7.05882 -7.0588,-7.05882 -3.9177,0 -7.0589,3.14118 -7.0589,7.05882 0,3.91766 3.1412,7.05882 7.0589,7.05882 z m 31.7647,0 c 3.9177,0 7.0587,-3.14116 7.0587,-7.05882 0,-3.91764 -3.141,-7.05882 -7.0587,-7.05882 -3.9177,0 -7.0589,3.14118 -7.0589,7.05882 0,3.91766 3.1412,7.05882 7.0589,7.05882 z" id="wc" class="icon"/>
        </g>
        <g id="str4-bottom" class="room">
          <path class="stair" id="path141" d="m 1120,442 v 76.84376 l 120,16.5476 V 442 Z"/>
          <path d="m 1192.5264,456.89475 v 12.63157 h -12.6317 v 12.63157 h -12.6315 v 12.63157 h -12.6316 v 9.47368 h 22.1052 v -12.63157 h 12.6316 V 479 h 12.6315 v -12.63158 h 12.6317 v -9.47367 z" id="stairs" class="icon"/>
        </g>
        <g id="lft4" class="room">
          <path class="stair" id="path4805" d="m 1240,441.99994 v 93.39141 l 144,19.60859 v -113 z"/>
          <path d="m 1298.6665,459 13.3334,13.33334 h -10 v 13.33333 h -6.6667 v -13.33333 h -10 L 1298.6665,459 m 33.3334,26.66667 -13.3334,-13.33333 h 10 V 459 h 6.6667 v 13.33334 h 10 l -13.3333,13.33333 m -33.3334,6.66667 h 33.3334 A 6.6666667,6.6666667 0 0 1 1338.6665,499 v 20 a 6.6666667,6.6666667 0 0 1 -6.6666,6.66667 h -33.3334 A 6.6666667,6.6666667 0 0 1 1291.9999,519 v -20 a 6.6666667,6.6666667 0 0 1 6.6666,-6.66666 m 0,6.66666 v 20 h 33.3334 v -20 z" id="lift" class="icon"/>
        </g>
        <path d="m 1384,441.99989 v 113 l 56.5267,7.97328 0.2868,-120.89695 z" id="path3839" class="void"/>
        <path d="m 1124.8135,315.07622 h -34 v 10 h 34 z" id="path3849" class="void"/>
        
        </svg>