<?xml version="1.0" encoding="UTF-8" standalone="no"?>
<?xml-stylesheet type="text/css" href="nav-style.css"?>
<!-- Created with Inkscape (http://www.inkscape.org/) -->
 <svg v-if="showState['3a']" xmlns:dc="http://purl.org/dc/elements/1.1/" xmlns:cc="http://creativecommons.org/ns#" xmlns:rdf="http://www.w3.org/1999/02/22-rdf-syntax-ns#" xmlns:svg="http://www.w3.org/2000/svg" xmlns="http://www.w3.org/2000/svg" xmlns:sodipodi="http://sodipodi.sourceforge.net/DTD/sodipodi-0.dtd" xmlns:inkscape="http://www.inkscape.org/namespaces/inkscape" version="1.1" id="svg2" width="582.99988" height="563.92383" viewBox="0 0 582.99988 563.92383">
        <metadata id="metadata8">

        </metadata>
        <defs id="defs6"/>

        <filter id="dropShadow" height="130%">
          <feGaussianBlur in="SourceAlpha" stdDeviation="3" id="feGaussianBlur6"/>

          <feOffset dx="10" dy="10" result="offsetblur" id="feOffset8"/>

          <feComponentTransfer id="feComponentTransfer12">
            <feFuncA type="linear" slope="0.5" id="feFuncA10"/>

          </feComponentTransfer>
          <feMerge id="feMerge18">
            <feMergeNode id="feMergeNode14"/>

            <feMergeNode id="feMergeNode16"/>

          </feMerge>
        </filter>
        <path d="m 582.84475,18.9375 -362,-19 0.1864,172.9238 -68.1864,1.0762 v 70.9238 H 0.03125 v 319 h 411.9999 c 37.4362,-82.2087 99.0376,-120.9277 171,-141 z" id="path93" class="building" style="fill:#ffffff"/>
        <path d="M 220.9307,0.9062 221.1171,173.83 152.8135,174 v 70.9238 L 2.9307,244.9058 c 129.2856,-32.9907 214.7446,-147.5493 218,-244 z" id="path3853" class="void"/>
        
       
        
        
        <g id="str3a" class="room">
          <path class="stair" id="path4829" d="m 152.8135,537.9238 v 26 H 0 v -26 z"/>
          <path class="icon" id="stairs-6" d="m 78.718659,540.97372 v 4.8 h -4.8001 v 4.7999 h -4.7999 v 4.8001 h -4.8 v 3.6 h 8.3999 v -4.8 h 4.8001 v -4.7999 h 4.8 v -4.8001 h 4.799996 v -3.6 z"/>
        </g>
        <g id="lft3a" class="room">
          <path class="stair" id="path4827" d="m 362.9463,390.8528 h -141 v -110 l 37,-37 h 104 z"/>
          <path class="icon" id="lift-0" d="m 276.97752,284.86499 13.3334,13.3334 h -10 v 13.3333 h -6.6667 v -13.3333 h -10 l 13.3333,-13.3334 m 33.3334,26.6667 -13.3334,-13.3333 h 10 v -13.3334 h 6.6667 v 13.3334 h 10 l -13.3333,13.3333 m -33.3334,6.6667 h 33.3334 a 6.6666667,6.6666667 0 0 1 6.6666,6.6666 v 20 a 6.6666667,6.6666667 0 0 1 -6.6666,6.6667 h -33.3334 a 6.6666667,6.6666667 0 0 1 -6.6666,-6.6667 v -20 a 6.6666667,6.6666667 0 0 1 6.6666,-6.6666 m 0,6.6666 v 20 h 33.3334 v -20 z"/>
        </g>
        <g id="tlt3a" class="room">
          <path class="toilet" id="path4825" d="m 362.9999,467.9238 v -77 h -141 v 77 z"/>
          <path class="icon" id="wc-7" d="m 272.23155,463.64446 v -26.4706 h -5.2941 v -19.4117 c 0,-3.8824 3.1765,-7.0588 7.0588,-7.0588 h 10.5883 c 3.8824,0 7.0588,3.1764 7.0588,7.0588 v 19.4117 h -5.2941 v 26.4706 z m 44.1176,0 v -21.1765 h 10.5883 l -8.9647,-26.9294 c -0.9882,-2.8941 -3.6706,-4.8352 -6.7059,-4.8352 h -0.4236 c -3.0353,0 -5.7528,1.9411 -6.7058,4.8352 l -8.9647,26.9294 h 10.5882 v 21.1765 z m -37.0587,-56.4706 c 3.9175,0 7.0588,-3.1411 7.0588,-7.0588 0,-3.9176 -3.1413,-7.0588 -7.0588,-7.0588 -3.9177,0 -7.0589,3.1412 -7.0589,7.0588 0,3.9177 3.1412,7.0588 7.0589,7.0588 z m 31.7647,0 c 3.9177,0 7.0587,-3.1411 7.0587,-7.0588 0,-3.9176 -3.141,-7.0588 -7.0587,-7.0588 -3.9177,0 -7.0589,3.1412 -7.0589,7.0588 0,3.9177 3.1412,7.0588 7.0589,7.0588 z"/>
        </g>
        
        <path d="m 362.9999,324 h 79.8136 v -80.0762 l -79.8672,-0.071 z" id="path4831" class="void"/>
        <path d="m 461.9999,390.9238 h 49 v -146 h 72 v 178 c -84.3994,22.2916 -139.3819,71.111 -171,141 h -49 v -173 z" id="path44" class="void"/>
        
        
      </svg>